# xmcd
#
# Track frame offsets:
#	150
#	13757
#	26779
#	43649
#	67264
#	98512
#	112088
#	130677
#	149508
#	167116
#	182766
#	197387
#
# Disc length: 2821 seconds
#
# Revision: 1
# Processed by: cddbd v1.5.2PL0 Copyright (c) Steve Scherf et al.
# Submitted via: audiograbber 1.83.01
#
DISCID=a90b030c
DTITLE=Markus Rill - The Things That Count
DYEAR=2007
DGENRE=Country
TTITLE0=Straighter Road
TTITLE1=Unlike You
TTITLE2=What Might've Been
TTITLE3=Scene Of The Crime
TTITLE4=Sarah Stein
TTITLE5=Gotta Keep My Hands Off
TTITLE6=On The Sly
TTITLE7=Faith Is Hard
TTITLE8=The Things That Count
TTITLE9=Dimestore Paperback Memory
TTITLE10=I'll Wait For You
TTITLE11=Just Like It Never Did Exist
EXTD=
EXTT0=words and music by markus rill
EXTT1=words and music by markus rill
EXTT2=words and music by markus rill
EXTT3=words and music by markus rill
EXTT4=words and music by markus rill
EXTT5=words and music by markus rill
EXTT6=words and music by markus rill
EXTT7=words and music by markus rill
EXTT8=words and music by markus rill
EXTT9=words and music by markus rill
EXTT10=words and music by markus rill and andreas obliego
EXTT11=
PLAYORDER=
